<?xml version="1.0" encoding="UTF-8" standalone="no"?>
<svg
   viewBox="0 0 512 512"
   width="512"
   height="512"
   version="1.1"
   id="svg1"
   sodipodi:docname="gear.svg"
   inkscape:version="1.4.3 (0d15f75, 2025-12-25)"
   xmlns:inkscape="http://www.inkscape.org/namespaces/inkscape"
   xmlns:sodipodi="http://sodipodi.sourceforge.net/DTD/sodipodi-0.dtd"
   xmlns="http://www.w3.org/2000/svg"
   xmlns:svg="http://www.w3.org/2000/svg">
  <sodipodi:namedview
     id="namedview1"
     pagecolor="#ffffff"
     bordercolor="#000000"
     borderopacity="0.25"
     inkscape:showpageshadow="2"
     inkscape:pageopacity="0.0"
     inkscape:pagecheckerboard="0"
     inkscape:deskcolor="#d1d1d1"
     inkscape:zoom="1.6117062"
     inkscape:cx="248.80465"
     inkscape:cy="286.96297"
     inkscape:window-width="2560"
     inkscape:window-height="1369"
     inkscape:window-x="2552"
     inkscape:window-y="-8"
     inkscape:window-maximized="1"
     inkscape:current-layer="svg1" />
  <defs
     id="defs1" />
  <path
     d="m 361.78746,413.22574 c -28.05725,0 -51.01318,-22.95593 -51.01318,-51.01317 0,-28.05725 22.95593,-51.01318 51.01318,-51.01318 28.05724,0 51.01317,22.95593 51.01317,51.01318 0,28.05724 -22.95593,51.01317 -51.01317,51.01317 z m 114.77965,-82.89641 c -2.55066,-9.35242 -6.37665,-18.27972 -11.05286,-26.35681 L 476.142,272.08928 451.91074,247.85802 420.0275,258.48577 c -8.5022,-4.67621 -17.4295,-8.5022 -26.78192,-11.05286 l -14.45373,-29.75768 h -34.00879 l -14.87884,29.75768 c -9.35242,2.55066 -18.27972,6.37665 -26.35681,11.05286 l -31.88324,-10.62775 -24.23126,24.23126 10.62775,31.88324 c -4.67621,8.5022 -8.5022,17.4295 -11.05286,26.78192 l -29.75768,14.45373 v 34.00879 l 29.75768,14.87884 c 2.55066,9.35242 6.37665,18.27972 11.05286,26.35681 l -10.62775,31.88324 24.23126,24.23126 31.88324,-10.62775 c 8.5022,4.67621 17.4295,8.5022 26.78192,11.05286 l 14.87884,29.75768 h 34.00879 l 14.87884,-29.75768 c 9.35242,-2.55066 18.27972,-6.37665 26.35681,-11.05286 l 31.88324,10.62775 24.23126,-24.23126 -10.62775,-31.88324 c 4.67621,-8.5022 8.5022,-17.4295 11.05286,-26.78192 l 29.75768,-14.87884 v -34.00879 z"
     id="path1"
     style="fill:#b3b3b3;stroke:#000000;stroke-width:10.5002;stroke-dasharray:none" />
</svg>
